<svg width="18" height="19" viewBox="0 0 18 19" fill="none" xmlns="http://www.w3.org/2000/svg">
<g id="phone">
<path id="Icon" d="M6.28325 7.44861C6.80525 8.53582 7.51684 9.5548 8.41803 10.456C9.31921 11.3572 10.3382 12.0688 11.4254 12.5908C11.5189 12.6357 11.5657 12.6581 11.6249 12.6754C11.8351 12.7367 12.0933 12.6926 12.2714 12.5651C12.3215 12.5292 12.3644 12.4864 12.4501 12.4006C12.7123 12.1384 12.8434 12.0073 12.9752 11.9216C13.4724 11.5984 14.1133 11.5984 14.6105 11.9216C14.7423 12.0073 14.8734 12.1384 15.1356 12.4006L15.2818 12.5468C15.6804 12.9454 15.8797 13.1447 15.9879 13.3587C16.2032 13.7844 16.2032 14.2871 15.9879 14.7127C15.8797 14.9268 15.6804 15.1261 15.2818 15.5246L15.1636 15.6429C14.7664 16.0401 14.5677 16.2387 14.2977 16.3904C13.9981 16.5587 13.5327 16.6797 13.1891 16.6787C12.8793 16.6778 12.6677 16.6177 12.2443 16.4975C9.9693 15.8518 7.82253 14.6335 6.03154 12.8425C4.24056 11.0515 3.0222 8.90472 2.37647 6.62967C2.25632 6.20634 2.19624 5.99467 2.19532 5.68496C2.1943 5.34129 2.31532 4.87592 2.48363 4.57629C2.63532 4.30627 2.83393 4.10766 3.23114 3.71044L3.34937 3.59222C3.74795 3.19364 3.94724 2.99434 4.16128 2.88609C4.58695 2.67078 5.08965 2.67078 5.51532 2.88609C5.72936 2.99434 5.92865 3.19364 6.32723 3.59222L6.47338 3.73837C6.73559 4.00057 6.86669 4.13168 6.9524 4.26351C7.27565 4.76068 7.27565 5.40161 6.9524 5.89878C6.86669 6.03061 6.73559 6.16172 6.47338 6.42392C6.38765 6.50966 6.34478 6.55252 6.3089 6.60263C6.18139 6.7807 6.13736 7.0389 6.19866 7.24916C6.2159 7.30833 6.23835 7.35509 6.28325 7.44861Z" stroke="#FF6262" stroke-width="1.5" stroke-linecap="round" stroke-linejoin="round"/>
</g>
</svg>
