<?xml version="1.0" encoding="UTF-8"?><svg id="Layer_1" xmlns="http://www.w3.org/2000/svg" viewBox="0 0 500 550.84"><defs><style>.cls-1{fill:#fc0;}.cls-2{fill:#ff6262;}.cls-3{fill:#ff8015;}.cls-4{fill:#17cab6;}.cls-5{fill:#4066e4;}</style></defs><path class="cls-5" d="M303.84,251.58c12.38,8.66,23.03,18.57,32.48,29.86,17.58,17.7,39.05,31.29,63.11,38.16,16.19,6.01,33.13,10.67,47.36,20.86,21.96,15.99,39.19,45.43,32.42,73.07-5.29,18.12-17.06,33.1-27.67,48.33-13.29,19.72-31.42,35.07-50.87,48.48-43.59,25.22-94.92,37.56-144.95,40.49-28.86,.13-61.11-4.18-82.19-24.31-21.96-20.98-40.87-39.38-37.03-67.57,1.83-21.52,18.32-36.01,26.72-54.79,26.11-49.85,1.15-77.39,33.64-115.03,11.85-11.17,26-20.04,37.09-32.21,18.76-17.61,48.82-20.26,69.88-5.34Z"/><path class="cls-1" d="M395.7,286.42c-24.75-14.26-48.24-40.89-47.07-70.94,1.86-14.8,6.98-29.77,14.92-42.44,10.15-14.39,20.33-28.75,30.65-43.02,5.3-7.33,12.97-11.07,21.52-13.28,14.81-3.89,32.17-4.3,43.34,8.77,10.77,12.6,22.09,25.19,27.04,41.01,6.78,25.09,15.78,50.13,13.56,76.53,.12,26.16-4.64,38.81-44.05,51.86-19.89,6.59-41.72,.51-59.91-8.49Z"/><path class="cls-3" d="M139.72,394.84c-10.55,22.77-24.25,51.2-52.55,49.1-22.93-1.96-45.22-13.68-57.1-33.21C7.16,373.07-3.04,361.76,.79,292.67c.89-16.06,15.68-28.36,30.81-33.3,33.43-9.52,67.12,12.64,88.8,36.57,29.85,27.83,32.43,70.59,19.31,98.9Z"/><path class="cls-2" d="M343.5,151.86c-30.36,58.39-76.69,38.76-105.12,23.48-24.39-13.11-21.7-52.34-25.75-78.32-1.8-25.49,.25-49.02,15.1-74.35C240.64,.67,271.09-4.48,295.18,3.62c20.42,6.85,32.74,24.94,42.97,42.75,17.26,32.14,22.65,72.23,5.35,105.49Z"/><path class="cls-4" d="M70.81,109.8c8.75-17.36,26.04-40.52,45.24-32.22,29.34,12.69,50.68,31.25,62.65,55.92,12.52,25.79,38.15,42.93,30.87,67.55-12.32,41.64-39.75,63.13-79.64,59.72-34.52-2.95-51.63-47.19-61.94-79.34-9.43-29.42-10.04-49.68,2.82-71.62Z"/></svg>