<?xml version="1.0" encoding="UTF-8"?><svg id="Layer_1" xmlns="http://www.w3.org/2000/svg" viewBox="0 0 526.53 160.1"><defs><style>.cls-1{fill:#fc0;}.cls-2{fill:#ff6262;}.cls-3{fill:#ff8015;}.cls-4{fill:#17cab6;}.cls-5{fill:#4066e4;}.cls-6{fill:#282828;}</style></defs><g><path class="cls-5" d="M88.31,73.12c3.6,2.52,6.69,5.4,9.44,8.68,5.11,5.15,11.35,9.1,18.34,11.09,4.7,1.75,9.63,3.1,13.77,6.06,6.38,4.65,11.39,13.2,9.42,21.24-1.54,5.27-4.96,9.62-8.04,14.05-3.86,5.73-9.13,10.19-14.79,14.09-12.67,7.33-27.59,10.92-42.13,11.77-8.39,.04-17.76-1.22-23.89-7.07-6.38-6.1-11.88-11.45-10.76-19.64,.53-6.25,5.32-10.47,7.77-15.93,7.59-14.49,.33-22.49,9.78-33.43,3.44-3.25,7.56-5.82,10.78-9.36,5.45-5.12,14.19-5.89,20.31-1.55Z"/><path class="cls-1" d="M115.01,83.25c-7.19-4.14-14.02-11.88-13.68-20.62,.54-4.3,2.03-8.65,4.34-12.33,2.95-4.18,5.91-8.36,8.91-12.5,1.54-2.13,3.77-3.22,6.25-3.86,4.31-1.13,9.35-1.25,12.6,2.55,3.13,3.66,6.42,7.32,7.86,11.92,1.97,7.29,4.59,14.57,3.94,22.24,.03,7.6-1.35,11.28-12.8,15.07-5.78,1.91-12.13,.15-17.41-2.47Z"/><path class="cls-3" d="M40.61,114.76c-3.07,6.62-7.05,14.88-15.28,14.27-6.67-.57-13.14-3.98-16.6-9.65C2.08,108.43-.88,105.15,.23,85.06c.26-4.67,4.56-8.24,8.96-9.68,9.72-2.77,19.51,3.67,25.81,10.63,8.68,8.09,9.43,20.52,5.61,28.75Z"/><path class="cls-2" d="M99.84,44.14c-8.82,16.97-22.29,11.27-30.55,6.82-7.09-3.81-6.31-15.21-7.48-22.76-.52-7.41,.07-14.25,4.39-21.61,3.75-6.39,12.6-7.89,19.6-5.54,5.93,1.99,9.52,7.25,12.49,12.43,5.02,9.34,6.58,20.99,1.56,30.66Z"/><path class="cls-4" d="M20.58,31.91c2.54-5.04,7.57-11.78,13.15-9.36,8.53,3.69,14.73,9.08,18.21,16.25,3.64,7.5,11.09,12.48,8.97,19.63-3.58,12.1-11.55,18.35-23.15,17.36-10.03-.86-15.01-13.72-18-23.06-2.74-8.55-2.92-14.44,.82-20.82Z"/></g><g><path class="cls-6" d="M184.3,36.68v16.41c0,.71,.58,1.29,1.29,1.29h20.53c.71,0,1.29,.58,1.29,1.29V123.23c0,.71,.58,1.29,1.29,1.29h17.35c.71,0,1.29-.58,1.29-1.29V55.68c0-.71,.58-1.29,1.29-1.29h20.63c.71,0,1.29-.58,1.29-1.29v-16.41c0-.71-.58-1.29-1.29-1.29h-63.68c-.71,0-1.29,.58-1.29,1.29Z"/><path class="cls-6" d="M260.37,60.14v63.09c0,.71,.58,1.29,1.29,1.29h16.88c.71,0,1.29-.58,1.29-1.29V60.14c0-.71-.58-1.29-1.29-1.29h-16.88c-.71,0-1.29,.58-1.29,1.29Zm9.73-32.14c-8.2,0-13.49,4.7-13.49,12.08,0,7.38,5.28,12.19,13.49,12.19s13.49-4.81,13.49-12.19c0-7.38-5.39-12.08-13.49-12.08Z"/><path class="cls-6" d="M331,42.55v6.87c0,.93-.95,1.55-1.8,1.19-3.41-1.47-7.44-2.32-11.81-2.32-17.82,0-28.86,11.85-28.86,30.97v5.86c0,19.12,11.03,30.97,28.86,30.97,4.37,0,8.39-.84,11.81-2.3,.85-.37,1.8,.26,1.8,1.19v6.51c0,7.03-3.76,10.91-9.85,10.91-6.45,0-9.21-3.38-9.78-10.42-.06-.67-.61-1.19-1.29-1.19h-16.75c-.76,0-1.35,.65-1.29,1.41,1.42,17.73,10.48,26.98,29.11,26.98s29.21-10.21,29.21-28.63V42.55c0-.71-.58-1.29-1.29-1.29h-16.77c-.71,0-1.29,.58-1.29,1.29Zm0,42.22c0,9.03-4.11,13.73-11.61,13.73s-11.49-4.7-11.49-13.73v-4.22c0-9.04,3.99-13.85,11.49-13.85s11.61,4.7,11.61,13.85v4.22Z"/><path class="cls-6" d="M402.64,37.16v4.53c0,.93-.95,1.55-1.8,1.19-3.41-1.47-7.44-2.31-11.81-2.31-17.83,0-28.86,11.84-28.86,30.96v7.03c0,19.12,11.02,30.97,28.86,30.97,4.37,0,8.39-.84,11.81-2.31,.85-.37,1.8,.26,1.8,1.19v7.68c0,7.04-3.76,10.91-9.86,10.91-6.45,0-9.21-3.38-9.77-10.42-.05-.67-.61-1.2-1.29-1.2h-16.76c-.76,0-1.35,.65-1.29,1.41,1.43,17.73,10.48,26.98,29.11,26.98s29.21-10.2,29.21-28.61V37.16c0-.71-.58-1.29-1.29-1.29h-16.76c-.71,0-1.29,.58-1.29,1.29Zm0,41.05c0,9.04-4.11,13.73-11.61,13.73s-11.5-4.69-11.5-13.73v-5.39c0-9.04,4-13.85,11.5-13.85s11.61,4.7,11.61,13.85v5.39Z"/><path class="cls-6" d="M434.84,65.53v63.09c0,.71,.58,1.29,1.29,1.29h16.88c.71,0,1.29-.58,1.29-1.29v-63.09c0-.71-.58-1.29-1.29-1.29h-16.88c-.71,0-1.29,.58-1.29,1.29Zm9.73-32.14c-8.21,0-13.49,4.69-13.49,12.08s5.28,12.19,13.49,12.19,13.5-4.81,13.5-12.19-5.4-12.08-13.5-12.08Z"/><path class="cls-6" d="M525.24,86.88c.71,0,1.29-.58,1.29-1.29v-14.43c0-17.54-10.15-28.42-27.28-29.77-18.71-1.47-34.64,13.49-34.64,32.26v18.45c0,18.46,15.42,33.34,33.85,32.34,16.87-.92,26.38-10.1,27.97-28.41,.07-.76-.53-1.42-1.29-1.42h-16.81c-.65,0-1.2,.49-1.28,1.13-.97,7.57-3.98,11.19-11.36,11.19s-11.72-4.58-11.72-13.73v-5.04c0-.71,.58-1.29,1.29-1.29h39.98Zm-41.28-15.6c0-9.04,3.99-13.73,11.72-13.73s11.49,4.34,11.49,12.55v1.17c0,.71-.58,1.29-1.29,1.29h-20.63c-.71,0-1.29-.58-1.29-1.29h0Z"/></g></svg>