<svg xmlns="http://www.w3.org/2000/svg" width="21" height="24" viewBox="0 0 21 24" fill="none">
  <g clip-path="url(#clip0_3631_57488)">
    <path d="M21 15.75V2.25C21 1.00734 19.9922 0 18.75 0H4.5C2.01469 0 0 2.01469 0 4.5V19.5C0 21.9853 2.01469 24 4.5 24H19.5C20.3283 24 21 23.3283 21 22.5422C21 21.9928 20.6903 21.5334 20.25 21.2719V17.4581C20.7094 17.0063 21 16.4156 21 15.75ZM6.70781 6H15.7078C16.1625 6 16.5 6.3375 16.5 6.75C16.5 7.1625 16.1625 7.5 15.75 7.5H6.70781C6.3375 7.5 6 7.1625 6 6.75C6 6.3375 6.3375 6 6.70781 6ZM6.70781 9H15.7078C16.1625 9 16.5 9.3375 16.5 9.75C16.5 10.1625 16.1625 10.5 15.75 10.5H6.70781C6.3375 10.5 6 10.1625 6 9.75C6 9.3375 6.3375 9 6.70781 9ZM18 21H4.5C3.67172 21 3 20.3283 3 19.5C3 18.6717 3.67172 18 4.5 18H18V21Z" fill="black"/>
  </g>
  <defs>
    <clipPath id="clip0_3631_57488">
      <rect width="21" height="24" fill="white"/>
    </clipPath>
  </defs>
</svg>
