<svg xmlns="http://www.w3.org/2000/svg" width="24" height="24" viewBox="0 0 24 24" fill="none">
<g clip-path="url(#clip0_3631_57332)">
<path d="M23.9203 19.7766C23.6581 18.9914 22.8173 18.5653 22.0233 18.8288L21.1148 19.1305L19.1602 14.4444C18.9328 13.8328 18.3844 13.5 17.7703 13.5H13.1869L12.6994 11.25H15.7514C16.5806 11.25 17.2514 10.5792 17.2514 9.75C17.2514 8.92078 16.5806 8.25 15.7514 8.25H12.0492L11.9813 7.93125C11.8031 6.66094 10.65 5.85 9.43125 6.02344C8.16094 6.19688 7.34531 7.33594 7.52344 8.56875L8.63344 15.15C8.70937 15.9188 9.35625 16.5 10.125 16.5H16.7531L18.8559 21.5578C19.0922 22.1391 19.6547 22.5 20.25 22.5C20.4067 22.5 20.5679 22.4751 20.7244 22.4224L22.9744 21.6724C23.7609 21.4125 24.1828 20.5641 23.9203 19.7766ZM7.5 21.75C4.605 21.75 2.25 19.395 2.25 16.5C2.25 13.957 4.06781 11.8336 6.47156 11.3531L6.09844 9.14062C2.62781 9.79688 0 12.8391 0 16.5C0 20.6423 3.35766 24 7.5 24C11.1281 24 14.1516 21.4233 14.85 18H12.5484C11.8547 20.1609 9.87187 21.75 7.5 21.75ZM9 4.5C10.2427 4.5 11.25 3.49266 11.25 2.25C11.25 1.00734 10.2422 0 9 0C7.75781 0 6.75 1.00734 6.75 2.25C6.75 3.49266 7.75781 4.5 9 4.5Z" fill="black"/>
</g>
<defs>
<clipPath id="clip0_3631_57332">
<rect width="24" height="24" fill="white"/>
</clipPath>
</defs>
</svg>
