<svg xmlns="http://www.w3.org/2000/svg" width="15" height="24" viewBox="0 0 15 24" fill="none">
<g clip-path="url(#clip0_3253_17748)">
<path d="M7.5 0C8.32969 0 9 0.671719 9 1.5V3.1725C9.075 3.18234 9.14531 3.19313 9.22031 3.20391C9.71719 3.27797 11.1984 3.51656 11.8078 3.67078C12.5672 3.87422 13.0969 4.69219 12.8906 5.49375C12.6891 6.29531 11.8734 6.78281 11.0672 6.58125C10.6313 6.42656 9.30469 6.24844 8.77969 6.17344C7.275 5.94844 5.98594 6.06094 5.1 6.39844C4.24313 6.72656 3.88735 7.19063 3.79313 7.71094C3.70219 8.2125 3.7711 8.49844 3.8536 8.67656C3.94219 8.86406 4.11516 9.075 4.45969 9.30469C5.22188 9.80625 6.38438 10.1438 7.89375 10.5516L8.025 10.5891C9.35625 10.95 10.9875 11.3953 12.1969 12.1969C12.8578 12.6375 13.4812 13.2328 13.8656 14.0578C14.2547 14.8922 14.3391 15.8297 14.1609 16.7859C13.8328 18.6094 12.5672 19.8 11.0812 20.4188C10.4438 20.6812 9.74063 20.85 9 20.9344V22.5C9 23.3297 8.32969 24 7.5 24C6.67032 24 6 23.3297 6 22.5V20.8641C5.98125 20.8641 5.95782 20.8172 5.93906 20.8547H5.92969C4.79063 20.6766 2.90954 20.1844 1.64063 19.6219C0.8836 19.2844 0.542819 18.3984 0.879381 17.6391C1.21594 16.8844 2.10235 16.5422 2.81719 16.8797C3.83907 17.3156 5.45157 17.7422 6.38438 17.8875C7.88438 18.1125 9.11719 17.9812 9.95156 17.6437C10.7438 17.3203 11.1047 16.8516 11.2078 16.2891C11.2969 15.7875 11.2312 15.5016 11.1469 15.3234C11.0578 15.1359 10.8844 14.925 10.5422 14.6953C9.77813 14.1938 8.61563 13.8562 7.10625 13.4484L6.975 13.4109C5.64375 13.05 4.01157 12.6047 2.80125 11.8031C2.13985 11.3625 1.52016 10.7672 1.13532 9.94219C0.74485 9.10781 0.660006 8.17031 0.841412 7.17188C1.17329 5.34844 2.48672 4.18547 4.02938 3.59672C4.63969 3.36375 5.30157 3.21047 6 3.12797V1.5C6 0.671719 6.67032 0 7.5 0Z" fill="#282828"/>
</g>
<defs>
<clipPath id="clip0_3253_17748">
<rect width="15" height="24" fill="white"/>
</clipPath>
</defs>
</svg>
