<svg xmlns="http://www.w3.org/2000/svg" width="24" height="24" viewBox="0 0 24 24" fill="none">
  <g clip-path="url(#clip0_3253_17746)">
    <path d="M23.9917 11.9766C23.9917 12.8203 23.3667 13.4813 22.6583 13.4813H21.325L21.3542 20.9859C21.3542 21.1172 21.3458 21.2391 21.3333 21.3656V22.125C21.3333 23.1609 20.5875 24 19.6667 24H19C18.9542 24 18.9083 23.9578 18.8625 23.9953C18.8042 23.9578 18.7458 24 18.6875 24H16.3333C15.4125 24 14.6667 23.1609 14.6667 22.125V18C14.6667 17.1703 14.0708 16.5 13.3333 16.5H10.6667C9.92917 16.5 9.33333 17.1703 9.33333 18V22.125C9.33333 23.1609 8.5875 24 7.66667 24H5.3375C5.275 24 5.2125 23.9953 5.15 23.9906C5.1 23.9953 5.05 24 5 24H4.33333C3.41292 24 2.66667 23.1609 2.66667 22.125V16.875C2.66667 16.8328 2.66792 16.7859 2.67042 16.7438V13.4813H1.33542C0.584167 13.4813 0 12.8203 0 11.9766C0 11.5547 0.125167 11.1797 0.417083 10.8516L11.1 0.37575C11.3917 0.0469687 11.725 0 12.0167 0C12.3083 0 12.6417 0.0939375 12.8958 0.328781L23.5333 10.8516C23.8667 11.1797 24.0375 11.5547 23.9917 11.9766Z" fill="#282828"/>
  </g>
  <defs>
    <clipPath id="clip0_3253_17746">
      <rect width="24" height="24" fill="white"/>
    </clipPath>
  </defs>
</svg>
