<svg xmlns="http://www.w3.org/2000/svg" width="24" height="24" viewBox="0 0 24 24" fill="none">
<g clip-path="url(#clip0_3253_17750)">
<path d="M10.7109 6.91406C10.5328 6.80625 10.3266 6.75 10.125 6.75C9.47812 6.75 9 7.27969 9 7.875V16.125C9 16.725 9.48328 17.25 10.125 17.25C10.3286 17.25 10.5319 17.1947 10.7119 17.0849L17.4619 12.9599C17.7937 12.7547 18 12.3938 18 12C18 11.6082 17.796 11.2444 17.4619 11.04L10.7109 6.91406ZM12 0C5.37188 0 0 5.37188 0 12C0 18.6281 5.37188 24 12 24C18.6281 24 24 18.6281 24 12C24 5.37188 18.6281 0 12 0ZM12 21.75C6.62344 21.75 2.25 17.3761 2.25 12C2.25 6.62391 6.62344 2.25 12 2.25C17.3766 2.25 21.75 6.62391 21.75 12C21.75 17.3761 17.3766 21.75 12 21.75Z" fill="#282828"/>
</g>
<defs>
<clipPath id="clip0_3253_17750">
<rect width="24" height="24" fill="white"/>
</clipPath>
</defs>
</svg>
