<svg xmlns="http://www.w3.org/2000/svg" width="24" height="24" viewBox="0 0 24 24" fill="none">
<g clip-path="url(#clip0_3253_17744)">
<path d="M23.7938 5.75581C23.6576 5.18909 22.9383 4.99971 22.5263 5.41184L18.938 9.00059L15.0427 9.00058V5.10527L18.6309 1.51652C19.043 1.10453 18.8536 0.384954 18.2871 0.249016C17.1766 -0.0178434 15.9743 -0.0374372 14.7283 0.26066C11.8478 0.949723 9.60019 3.3966 9.14082 6.3216C8.89688 7.53706 9.01407 8.75112 9.37969 9.848L1.03126 18.1964C-0.286868 19.5146 -0.286868 21.6507 1.03126 22.9683C1.64813 23.6293 2.51063 23.9996 3.33282 23.9996C4.15501 23.9996 5.05969 23.67 5.71923 23.011L14.0677 14.6625C15.1673 15.0252 16.3791 15.1425 17.6381 14.944C20.5636 14.4827 23.01 12.2346 23.6991 9.35647C24.0797 8.06675 24.0609 6.86675 23.7938 5.75581ZM3.75001 21.3746C3.12891 21.3746 2.62501 20.8707 2.62501 20.2496C2.62501 19.628 3.12891 19.1246 3.75001 19.1246C4.3711 19.1246 4.87501 19.628 4.87501 20.2496C4.87501 20.873 4.3711 21.3746 3.75001 21.3746Z" fill="#282828"/>
</g>
<defs>
<clipPath id="clip0_3253_17744">
<rect width="24" height="24" fill="white"/>
</clipPath>
</defs>
</svg>
