<svg xmlns="http://www.w3.org/2000/svg" width="24" height="24" viewBox="0 0 24 24" fill="none">
<g clip-path="url(#clip0_3253_17754)">
<path d="M22.5 8.41874C23.3719 8.83124 24 9.94218 24 11.25C24 12.5578 23.3719 13.6687 22.5 14.0812V21C22.5 21.6047 22.1344 22.1531 21.5719 22.3875C21.0141 22.6172 20.3672 22.4906 19.9406 22.0594L17.8922 19.9734C15.6422 17.7234 12.5906 16.5 9.40781 16.5H9V22.5C9 23.3297 8.32969 24 7.5 24H4.5C3.67172 24 3 23.3297 3 22.5V16.5C1.34297 16.5 0 15.1547 0 13.5V8.99999C0 7.3453 1.34297 5.99999 3 5.99999H9.40781C12.5906 5.99999 15.6422 4.73437 17.8922 2.48531L19.9406 0.439354C20.3672 0.0103774 21.0141 -0.117943 21.5719 0.114229C22.1344 0.346401 22.5 0.893432 22.5 1.49999V8.41874ZM9.40781 8.99999H9V13.5H9.40781C13.1484 13.5 16.7437 14.8969 19.5 17.4047V5.09531C16.7437 7.60312 13.1484 8.99999 9.40781 8.99999Z" fill="#282828"/>
</g>
<defs>
<clipPath id="clip0_3253_17754">
<rect width="24" height="24" fill="white"/>
</clipPath>
</defs>
</svg>
