<svg xmlns="http://www.w3.org/2000/svg" width="20" height="20" viewBox="0 0 20 20" fill="none">
  <g clip-path="url(#clip0_4079_7483)">
    <path d="M15.7143 5C15.7143 7.76172 13.1562 10 10 10C6.84375 10 4.28571 7.76172 4.28571 5C4.28571 2.23867 6.84375 0 10 0C13.1562 0 15.7143 2.23867 15.7143 5ZM9.33482 14.0312L7.85714 11.875H12.1429L10.6652 14.0312L12.1518 18.8711L13.9152 12.5742C17.3616 13.043 20 15.6523 20 18.8008C20 19.4609 19.3839 20 18.6295 20H1.37143C0.613839 20 0 19.4609 0 18.8008C0 15.6523 2.63795 13.043 6.08482 12.5742L7.84821 18.8711L9.33482 14.0312Z" fill="#FFCC00"/>
  </g>
  <defs>
    <clipPath id="clip0_4079_7483">
      <rect width="20" height="20" fill="white"/>
    </clipPath>
  </defs>
</svg>
