<svg xmlns="http://www.w3.org/2000/svg" width="20" height="20" viewBox="0 0 20 20" fill="none">
  <path d="M12.5 13.125C12.5 13.4705 12.2205 13.75 11.875 13.75H8.125C7.78125 13.75 7.5 13.4688 7.5 13.125V11.25H0V16.875C0 17.875 0.875391 18.75 1.875 18.75H18.125C19.1246 18.75 20 17.8746 20 16.875V11.25H12.5V13.125ZM18.125 3.75H15V1.875C15 0.875391 14.125 0 13.125 0H6.875C5.875 0 5 0.875391 5 1.875V3.75H1.875C0.875391 3.75 0 4.625 0 5.625V10H20V5.625C20 4.625 19.125 3.75 18.125 3.75ZM13.125 3.75H6.875V1.875H13.125V3.75Z" fill="#FF6262"/>
</svg>
